<?xml version="1.0" encoding="utf-8"?>
<!-- Generator: Adobe Illustrator 23.0.1, SVG Export Plug-In . SVG Version: 6.00 Build 0)  -->
<svg version="1.1" id="Capa_1" xmlns="http://www.w3.org/2000/svg" xmlns:xlink="http://www.w3.org/1999/xlink" x="0px" y="0px"
	 viewBox="0 0 512 512" style="enable-background:new 0 0 512 512;" xml:space="preserve">
<style type="text/css">
	.st0{fill:#FFFFFF;}
</style>
<g>
	<g>
		<path class="st0" d="M168.6,258.7c6-1.5,10.1-7,9.9-13.1c-0.4-10.3-0.6-17.2-0.5-18.5c0.3-20.7,4-42.2,7.8-62.5
			c6.8-36.4,13.8-74-0.2-111.3c-7.2-19.2-19.5-34.9-34.6-44C133.9-1.2,114.5-2.8,94.9,4.5c-23.1,8.6-42.3,25-55.7,47.5
			c-11.7,19.7-18.9,43.8-20.6,69.5c-1,14.4-0.3,28,2.1,41.5c0.7,4.1,4.6,6.8,8.7,6.1c4.1-0.7,6.8-4.6,6.1-8.7
			c-2.2-12.3-2.8-24.7-1.9-37.8c3.5-50.9,28.4-89.8,66.5-104c34.2-12.7,60.5,10.9,71.5,40c16.2,43.2,0.8,89.2-5.5,132.6
			c-1.7,11.8-2.9,23.7-3,35.7c0,1.6,0.1,7.5,0.5,17.6c-18,4.5-69.6,18.7-88,23.8c-5.4-13.5-10.7-25.9-15.3-36.8
			c-6.2-14.5-11.5-27-15.9-39.2c-1.4-3.9-5.7-5.9-9.6-4.5c-3.9,1.4-5.9,5.7-4.5,9.6c4.5,12.6,10,25.3,16.2,40
			c5.1,11.8,10.3,24,15.8,38c2,5.1,6.9,8.2,12.1,8.2c1.2,0,2.3-0.2,3.5-0.5C94.9,278.5,151.9,262.8,168.6,258.7L168.6,258.7z"/>
		<path class="st0" d="M189.7,293.4c0-0.1,0-0.2,0-0.2c-0.6-3.5-2.7-6.6-5.7-8.6c-3-1.9-6.7-2.6-10.2-1.7l-88.9,21.7
			c-3.6,0.9-6.7,3.3-8.4,6.5c-1.7,3.2-2,7-0.8,10.4l16.6,54.9c0,0.1,0.1,0.3,0.1,0.4c8.2,22.1,28.8,35.9,51.3,35.9
			c4.7,0,9.5-0.6,14.3-1.9c13.4-3.6,24.8-12,32.2-23.7c7.4-11.7,10.1-25.6,7.6-39.1L189.7,293.4z M154.2,396.4
			c-19.9,5.3-40.4-5.2-47.6-24.5l-16.1-53.2l84.8-20.7l7.9,52.4c0,0.1,0,0.2,0,0.2C186.8,371,174.1,391.1,154.2,396.4z"/>
		<path class="st0" d="M347.7,108.2c-19.1-8.7-38.6-8.5-56.4,0.7c-15.7,8.1-29.1,22.8-37.7,41.4c-16.7,36.2-12.4,74.2-8.3,110.9
			c2.3,20.9,4.5,41.9,3.3,62.9c-0.1,1.3-0.8,8.2-1.9,18.4c-0.7,6.1,3.1,11.9,8.9,13.8c16.4,5.3,72.1,25.1,88.8,31
			c1.4,0.5,2.9,0.8,4.4,0.8c4.9,0,9.5-2.7,11.7-7.4c6.5-13.6,12.6-25.4,18.5-36.8c20.9-40.4,36-69.7,36.2-113.6
			c0.1-25-5.6-50.1-16-70.8C387.4,136,369.6,118.2,347.7,108.2L347.7,108.2z M365.8,337.1c-5.5,10.5-11.6,22.5-18,35.6
			c-17.9-6.4-68.3-24.3-86-30.1c1.1-10.1,1.7-16,1.8-17.5c1.3-21.8-0.9-43.8-3.3-65.5c-4.1-36.3-7.9-70.6,7-103
			c13-28.2,41-49.9,74.2-34.8c18.7,8.6,34.1,24,44.5,44.5c9.4,18.6,14.5,41.3,14.4,64C400.1,270.7,386.4,297.1,365.8,337.1z"/>
		<path class="st0" d="M335.9,408.3L297,395.7c-3.9-1.3-8.2,0.9-9.4,4.8c-1.3,3.9,0.9,8.2,4.8,9.4l36.9,11.9l-19.9,51.9
			c-8.6,18.7-29.8,27.7-49.3,21c-19.5-6.8-30.8-27.7-25.6-47.7c0-0.1,0-0.2,0.1-0.2l11.6-51.7l12.9,4.2c3.9,1.3,8.2-0.9,9.4-4.8
			c1.3-3.9-0.9-8.2-4.8-9.4l-14.9-4.8c-3.4-1.1-7.1-0.7-10.3,1s-5.4,4.7-6.3,8.1c0,0.1,0,0.2-0.1,0.2L220,443.4
			c-3.4,13.4-1.7,27.4,4.8,39.6c6.5,12.2,17.4,21.4,30.4,25.9c6,2.1,12.1,3.1,18.1,3.1c20.9,0,40.6-12.1,49.8-32.2
			c0.1-0.1,0.1-0.3,0.2-0.4l20.6-53.5c1.4-3.3,1.4-7.1-0.1-10.4C342.3,412,339.4,409.4,335.9,408.3L335.9,408.3z"/>
		<path class="st0" d="M349.1,76.9c0.4,5.6,4.1,10.2,9.5,11.7c1.2,0.3,2.4,0.5,3.6,0.5c4.2,0,8.1-2,10.6-5.6l30.5-43.4
			c2.4-3.5,3-8,1.6-12c-1.5-4-4.8-7-8.9-8.1l-34-8.9c-4-1.1-8.4-0.1-11.6,2.6c-3.2,2.7-5,6.7-4.7,10.9L349.1,76.9z M389.3,33.8
			l-25.6,36.5l-3-44L389.3,33.8z"/>
		<path class="st0" d="M492.6,83.6l-21.3-46.2c-1.8-4-5.5-6.7-9.8-7.4c-4.3-0.7-8.7,0.8-11.6,4.1L394,95c-3.9,4.2-4.6,10.2-1.8,15.1
			c2.4,4.2,6.6,6.7,11.3,6.7c0.8,0,1.7-0.1,2.5-0.2l77.2-14.8c4-0.8,7.3-3.2,9.1-6.8C494.2,91.4,494.3,87.3,492.6,83.6L492.6,83.6z
			 M409.1,100.8l49.9-54.4l19,41.2L409.1,100.8z"/>
	</g>
</g>
</svg>
